<svg width="16" height="16" viewBox="0 0 16 16" fill="none" xmlns="http://www.w3.org/2000/svg">
<path d="M10.8002 3.06305C10.8329 3.06275 10.8656 3.06245 10.8993 3.06215C11.5044 3.05798 12.1147 3.10304 12.6948 3.28746C12.7251 3.29687 12.7553 3.30627 12.7865 3.31597C13.4874 3.54367 14.1013 3.92504 14.4575 4.59226C14.7623 5.2513 14.7304 5.94198 14.4863 6.6134C14.3763 6.90126 14.2396 7.17359 14.0938 7.44477C14.0753 7.47986 14.0753 7.47986 14.0564 7.51566C13.7039 8.18034 13.264 8.79267 12.8198 9.39849C12.6963 9.56731 12.5738 9.73691 12.4517 9.90676C12.3584 10.0363 12.2645 10.1652 12.1679 10.2922C11.9148 10.611 11.9148 10.611 11.8332 10.9983C11.8659 11.122 11.8972 11.1869 12.0028 11.2617C12.2167 11.3773 12.4032 11.3929 12.6439 11.3892C12.6826 11.3888 12.7213 11.3884 12.7612 11.388C13.6184 11.3651 14.4532 11.1006 15.2652 10.8452C15.3084 10.8316 15.3515 10.8181 15.396 10.8041C15.435 10.7917 15.474 10.7792 15.5142 10.7664C15.6133 10.7392 15.6133 10.7392 15.7245 10.7392C15.7139 10.8584 15.7043 10.9098 15.6117 10.9892C15.5785 11.0086 15.5453 11.0281 15.5111 11.0482C15.4738 11.0703 15.4365 11.0925 15.3981 11.1154C15.3575 11.1386 15.3169 11.1618 15.2751 11.1857C15.2333 11.2101 15.1914 11.2345 15.1483 11.2596C12.2477 12.9421 12.2477 12.9421 10.835 12.6809C10.5681 12.6092 10.3587 12.4907 10.2026 12.2568C10.0302 11.8399 10.056 11.3802 10.2026 10.9613C10.4592 10.3466 10.8386 9.80359 11.2508 9.28485C11.4665 9.01324 11.6722 8.73411 11.8797 8.45623C11.9384 8.37806 11.9978 8.3004 12.0574 8.22297C13.0995 6.96592 13.0995 6.96592 13.531 5.4575C13.4879 5.17224 13.3398 4.95607 13.1126 4.78428C12.5795 4.43206 11.955 4.2593 11.3491 4.07404C11.3245 4.06641 11.2999 4.05878 11.2745 4.05092C11.2041 4.02924 11.1335 4.00818 11.0629 3.98714C11.0221 3.97487 10.9812 3.96261 10.9391 3.94997C10.8338 3.92855 10.7827 3.92621 10.6843 3.96531C10.6025 4.02038 10.6025 4.02038 10.5361 4.07635C10.5541 4.08942 10.572 4.10249 10.5905 4.11595C10.6714 4.175 10.752 4.2344 10.8326 4.29382C10.8609 4.31438 10.8891 4.33495 10.9183 4.35614C10.9584 4.38584 10.9584 4.38584 10.9994 4.41614C11.0242 4.43437 11.049 4.45259 11.0746 4.47136C11.0926 4.48759 11.1106 4.50382 11.1291 4.52054C11.1291 4.54497 11.1291 4.5694 11.1291 4.59457C11.0592 4.60881 11.0592 4.60881 10.9879 4.62334C10.7645 4.66918 10.5413 4.71606 10.3182 4.76312C10.2354 4.78054 10.1526 4.79784 10.0699 4.81515C8.83349 5.0743 7.63287 5.39722 6.43173 5.78832C6.39305 5.80092 6.35438 5.81351 6.31453 5.82648C5.86473 5.97341 5.41841 6.12641 4.97713 6.29729C5.04215 6.49961 5.13177 6.67423 5.23481 6.85975C5.27361 6.96357 5.27361 6.96357 5.2467 7.0355C5.1964 7.11661 5.14197 7.18032 5.07586 7.24914C5.05168 7.27455 5.02751 7.29996 5.00261 7.32614C4.96477 7.36539 4.96477 7.36539 4.92617 7.40544C4.70167 7.63921 4.70167 7.63921 4.49535 7.88896C5.52694 8.16617 6.58107 8.07422 7.51631 7.54064C7.66631 7.44476 7.80528 7.33657 7.94191 7.22268C7.92813 7.12192 7.9132 7.08214 7.83638 7.01288C7.80929 6.99432 7.78221 6.97575 7.7543 6.95663C7.7052 6.92258 7.65642 6.88805 7.60838 6.85252C7.60838 6.84031 7.60838 6.82809 7.60838 6.81551C7.92874 6.83075 8.17444 6.91804 8.39821 7.15559C8.55742 7.35802 8.65803 7.59329 8.64605 7.85195C8.53598 7.85195 8.42592 7.85195 8.31251 7.85195C8.26594 7.74438 8.23839 7.67442 8.23839 7.55582C8.20022 7.58445 8.16205 7.61308 8.12273 7.64258C7.13742 8.36812 6.01486 8.67217 4.7898 8.48902C4.48513 8.43549 4.19409 8.36223 3.90239 8.25912C3.90744 8.29489 3.90744 8.29489 3.9126 8.3314C3.92799 8.44145 3.94299 8.55155 3.95798 8.66166C3.96329 8.69917 3.96859 8.73667 3.97405 8.77531C4.00596 9.01209 4.02073 9.24177 4.01357 9.48063C3.97368 9.50039 3.93379 9.52014 3.89269 9.54049C3.53138 9.72311 3.20983 9.92124 2.90178 10.1839C2.87283 10.2082 2.84388 10.2325 2.81405 10.2575C2.58511 10.4659 2.37858 10.7636 2.35978 11.0816C2.39439 11.289 2.46272 11.444 2.60761 11.5975C3.89861 12.3931 5.82126 11.9742 7.21712 11.6784C7.4708 11.6247 7.72028 11.5751 7.97897 11.5535C7.97181 11.6396 7.97181 11.6396 7.94191 11.7386C7.86396 11.7951 7.86396 11.7951 7.76009 11.8421C7.70222 11.8687 7.70222 11.8687 7.64317 11.8959C7.60112 11.9142 7.55906 11.9325 7.51573 11.9514C7.47238 11.9708 7.42903 11.9901 7.38437 12.01C5.7351 12.7338 3.65175 13.301 1.88307 12.6777C1.3393 12.4657 0.86574 12.1196 0.622597 11.5777C0.336421 10.8574 0.406417 10.0889 0.701711 9.38163C1.03898 8.6118 1.49749 7.9211 2.01234 7.2597C2.03572 7.2296 2.03572 7.2296 2.05957 7.19889C2.53368 6.59648 3.09759 6.04521 3.71709 5.59399C3.75197 5.56675 3.78684 5.5395 3.82277 5.51143C5.3735 4.30604 7.29163 3.57615 9.20195 3.18798C9.2339 3.18129 9.26586 3.17459 9.29878 3.1677C9.79527 3.0681 10.2957 3.0656 10.8002 3.06305Z" fill="#FF5A00"/>
</svg>
