<svg width="16" height="16" viewBox="0 0 16 16" fill="none" xmlns="http://www.w3.org/2000/svg">
<g clip-path="url(#clip0_1128_3662)">
<path fill-rule="evenodd" clip-rule="evenodd" d="M5.67271 9.2615C6.02859 9.2615 6.73653 9.24198 7.71507 8.83909C8.85537 8.36961 11.124 7.51735 12.7606 6.64195C13.9052 6.02967 14.407 5.21988 14.407 4.12937C14.407 2.61587 13.18 1.38892 11.6665 1.38892H5.32521C3.15125 1.38892 1.38892 3.15125 1.38892 5.32521C1.38892 7.49917 3.03898 9.2615 5.67271 9.2615Z" fill="#39594D"/>
<path fill-rule="evenodd" clip-rule="evenodd" d="M6.74524 11.9721C6.74524 10.9065 7.38677 9.94572 8.371 9.53723L10.368 8.70843C12.388 7.87009 14.6114 9.35453 14.6114 11.5416C14.6114 13.236 13.2375 14.6095 11.543 14.609L9.38088 14.6085C7.92513 14.6081 6.74524 13.4279 6.74524 11.9721Z" fill="#D18EE2"/>
<path d="M3.65807 9.78046C2.40487 9.78046 1.38892 10.7963 1.38892 12.0495V12.3435C1.38892 13.5966 2.40483 14.6126 3.65804 14.6126C4.91124 14.6126 5.92719 13.5966 5.92719 12.3435V12.0495C5.92719 10.7963 4.91128 9.78046 3.65807 9.78046Z" fill="#FF7759"/>
</g>
<defs>
<clipPath id="clip0_1128_3662">
<rect width="14" height="14" fill="white" transform="translate(1 1)"/>
</clipPath>
</defs>
</svg>
