<svg width="16" height="16" viewBox="0 0 16 16" fill="none" xmlns="http://www.w3.org/2000/svg">
<path d="M7.97219 1C8.16007 1.07141 8.332 1.15846 8.50745 1.25686C8.59253 1.30443 8.59253 1.30443 8.67932 1.35297C8.74077 1.38752 8.80221 1.42207 8.86364 1.45663C8.9277 1.49252 8.99177 1.52841 9.05584 1.56427C9.22042 1.65645 9.3849 1.74881 9.54936 1.84122C9.69525 1.92317 9.84122 2.005 9.98718 2.08683C10.2052 2.20909 10.4231 2.33148 10.641 2.45396C10.8405 2.56611 11.0401 2.6781 11.2398 2.78987C11.3588 2.85646 11.4778 2.9231 11.5967 2.98974C11.6791 3.03586 11.7615 3.08191 11.8439 3.12795C12.8481 3.69069 12.8481 3.69069 12.9397 3.78328C12.9418 3.88266 12.9418 3.98211 12.9397 4.08149C12.8142 4.17416 12.6975 4.24096 12.5463 4.28029C12.3748 4.23725 12.2407 4.14198 12.0944 4.04421C12.0027 3.98716 11.911 3.93028 11.8191 3.87356C11.7699 3.84269 11.7208 3.81181 11.6702 3.78C11.4209 3.62712 11.165 3.48644 10.909 3.34541C10.7571 3.26161 10.6055 3.17711 10.4539 3.0927C10.4084 3.06745 10.4084 3.06745 10.3621 3.04169C10.0907 2.8908 9.81964 2.73931 9.54882 2.58739C9.43578 2.524 9.32268 2.46074 9.2095 2.39761C8.98184 2.27027 8.75521 2.14254 8.53357 2.00471C8.50171 1.98513 8.46985 1.96556 8.43702 1.9454C8.35858 1.89667 8.2809 1.8467 8.20331 1.79658C8.07089 1.73206 8.07089 1.73206 7.92646 1.77445C7.75946 1.85239 7.59926 1.93795 7.44039 2.0313C7.37022 2.07184 7.30003 2.11235 7.22982 2.15284C7.17219 2.18621 7.17219 2.18621 7.1134 2.22026C6.87889 2.35542 6.64314 2.48833 6.40753 2.62151C6.35536 2.65103 6.30318 2.68056 6.24943 2.71097C5.55489 3.1038 4.85895 3.4941 4.16266 3.88375C4.0439 3.95022 3.92517 4.01675 3.80644 4.08327C3.72416 4.12935 3.64183 4.17536 3.55951 4.22136C3.2464 4.39681 2.93678 4.57694 2.62979 4.76314C2.5128 4.82701 2.5128 4.82701 2.41443 4.82701C2.41443 4.85981 2.41443 4.89262 2.41443 4.92641C2.45736 4.93972 2.50028 4.95303 2.54451 4.96674L8 8L13.5 5.5L14 8L8 12L2 8L2.5 5.5L8 8L2.41443 4.82701C2.41443 4.82701 2.5128 4.82701 2.62979 4.76314C2.93678 4.57694 3.2464 4.39681 3.55951 4.22136L8 8L14 4.5V11.5L8 15L2 11.5V4.5L8 1Z" fill="#FE321D"/>
</svg>
