<svg width="16" height="16" viewBox="0 0 16 16" fill="none" xmlns="http://www.w3.org/2000/svg">
<g clip-path="url(#clip0_1128_3660)">
<path d="M14.853 3.61448C14.7048 3.54215 14.6406 3.6804 14.5543 3.75098C14.5246 3.77373 14.4995 3.80348 14.4744 3.83031C14.2574 4.0619 14.0042 4.21356 13.6735 4.19548C13.1899 4.16865 12.7769 4.32031 12.4117 4.69015C12.3341 4.23398 12.0763 3.96215 11.6843 3.78715C11.479 3.69615 11.2713 3.60573 11.1272 3.40798C11.0269 3.2674 10.9995 3.11048 10.9493 2.95648C10.9172 2.86315 10.8851 2.76806 10.7784 2.75231C10.6617 2.73423 10.6162 2.83165 10.5707 2.91331C10.3881 3.24698 10.3176 3.61448 10.3246 3.98665C10.3403 4.82431 10.6938 5.49165 11.3967 5.9659C11.4766 6.02015 11.4971 6.07498 11.472 6.15431C11.4241 6.31765 11.367 6.47631 11.3168 6.64023C11.2847 6.74465 11.2369 6.76681 11.1249 6.7219C10.7465 6.55926 10.4027 6.3256 10.1122 6.03356C9.6123 5.55056 9.1608 5.0174 8.5973 4.59973C8.46674 4.50326 8.33268 4.41161 8.19539 4.32498C7.6208 3.76673 8.27122 3.30823 8.42172 3.25398C8.57922 3.19681 8.47597 3.00198 7.9673 3.00431C7.45864 3.00665 6.99314 3.1764 6.39989 3.40331C6.31173 3.43709 6.22103 3.46382 6.12864 3.48323C5.57425 3.37877 5.00727 3.35871 4.44689 3.42373C3.3473 3.54623 2.46939 4.06656 1.82364 4.95381C1.0478 6.02015 0.865221 7.23231 1.08864 8.49581C1.32372 9.82815 2.00389 10.9312 3.04864 11.7934C4.13247 12.6876 5.38022 13.1257 6.80414 13.0417C7.66864 12.9921 8.63172 12.8761 9.7173 11.9567C9.99147 12.0932 10.2785 12.1475 10.7556 12.1883C11.1231 12.2227 11.4766 12.1708 11.7502 12.1136C12.179 12.0226 12.1492 11.6254 11.9946 11.5531C10.7376 10.9674 11.0135 11.206 10.7621 11.0129C11.4014 10.2569 12.3639 9.47173 12.7407 6.92781C12.7699 6.7254 12.7448 6.59823 12.7407 6.4349C12.7384 6.33573 12.7611 6.29665 12.8749 6.28556C13.1905 6.25282 13.4967 6.1587 13.7761 6.00848C14.5905 5.5634 14.9195 4.83306 14.9971 3.9569C15.0087 3.82273 14.9947 3.68506 14.853 3.61448ZM7.75555 11.5C6.53697 10.5421 5.94605 10.2266 5.70222 10.24C5.47355 10.254 5.51497 10.5147 5.56514 10.6851C5.61764 10.8531 5.68589 10.9686 5.78155 11.1161C5.84805 11.2136 5.89355 11.3588 5.71564 11.4679C5.32305 11.7106 4.64114 11.3862 4.60905 11.3705C3.81514 10.9026 3.15072 10.2855 2.68347 9.4414C2.23197 8.62881 1.96947 7.75731 1.9263 6.8269C1.91464 6.60173 1.98055 6.5224 2.20455 6.48156C2.49862 6.42529 2.79992 6.4176 3.09647 6.45881C4.34014 6.64081 5.3983 7.19673 6.28614 8.07698C6.79247 8.57865 7.17572 9.17773 7.57064 9.7634C7.99064 10.3852 8.44214 10.9779 9.0173 11.4632C9.2203 11.6336 9.38189 11.7631 9.53705 11.8581C9.06922 11.9106 8.28872 11.9223 7.75555 11.5ZM8.33889 7.74331C8.33879 7.71434 8.34574 7.68577 8.35915 7.66008C8.37256 7.6344 8.39202 7.61236 8.41586 7.59588C8.43969 7.57939 8.46718 7.56896 8.49594 7.56548C8.52471 7.562 8.55389 7.56557 8.58097 7.5759C8.61548 7.58828 8.64527 7.61112 8.66618 7.64123C8.68709 7.67135 8.69809 7.70724 8.69764 7.7439C8.69772 7.76758 8.69308 7.79105 8.684 7.81293C8.67492 7.83481 8.66157 7.85466 8.64474 7.87133C8.62791 7.88799 8.60793 7.90115 8.58596 7.91001C8.564 7.91888 8.54049 7.92329 8.5168 7.92298C8.4933 7.92306 8.47001 7.91845 8.4483 7.90942C8.4266 7.90039 8.40691 7.88712 8.3904 7.87039C8.37389 7.85366 8.36088 7.83381 8.35213 7.81199C8.34339 7.79016 8.3385 7.76682 8.33889 7.74331ZM10.1531 8.67431C10.0364 8.72156 9.9203 8.7624 9.80889 8.76765C9.64127 8.77349 9.47679 8.72114 9.34339 8.61948C9.18355 8.48531 9.06922 8.41065 9.02139 8.17731C9.0049 8.06329 9.00805 7.94728 9.03072 7.83431C9.07155 7.64356 9.02605 7.52106 8.8913 7.41023C8.78222 7.31923 8.6428 7.29415 8.48997 7.29415C8.43764 7.29111 8.38682 7.2755 8.3418 7.24865C8.27764 7.21715 8.22514 7.13781 8.2753 7.03981C8.29164 7.00831 8.36864 6.93131 8.3873 6.91731C8.59497 6.79948 8.83472 6.83798 9.0558 6.92665C9.26114 7.01065 9.4163 7.16465 9.63972 7.38281C9.8678 7.6459 9.90922 7.71881 10.0393 7.91598C10.142 8.07056 10.2353 8.22923 10.2989 8.41065C10.338 8.5244 10.2878 8.61715 10.1531 8.67431Z" fill="#4D6BFE"/>
</g>
<defs>
<clipPath id="clip0_1128_3660">
<rect width="14" height="14" fill="white" transform="translate(1 1)"/>
</clipPath>
</defs>
</svg>
