<svg width="16" height="16" viewBox="0 0 16 16" fill="none" xmlns="http://www.w3.org/2000/svg">
<path fill-rule="evenodd" clip-rule="evenodd" d="M12.5138 4.36931C12.6089 4.2474 12.6923 4.13598 12.7804 4.02806C12.8212 3.97731 12.8177 3.93881 12.778 3.88573C12.3959 3.38348 12.3598 2.82581 12.5797 2.25998C12.7448 1.83415 13.1099 1.63465 13.5562 1.59206C13.8344 1.56581 14.1074 1.5944 14.3606 1.72973C14.6931 1.90765 14.8868 2.1789 14.9498 2.5534C14.9999 2.85206 14.9906 3.14373 14.906 3.43306C14.7561 3.94523 14.388 4.21065 13.8834 4.27773C13.4646 4.33373 13.0399 4.34073 12.6176 4.36931C12.5849 4.37165 12.5517 4.36931 12.5138 4.36931Z" fill="#027AFF"/>
<path fill-rule="evenodd" clip-rule="evenodd" d="M11.4778 2.07568H8.95433L6.95642 6.63152H4.13192V2.09552H1.875V13.8333H4.1325V8.88843H8.11317C8.44942 8.88841 8.77867 8.79232 9.06215 8.61147C9.34562 8.43061 9.57152 8.17253 9.71325 7.8676V13.8333H11.9707V8.88843C11.9708 8.31815 11.755 7.76899 11.3667 7.35129C10.9785 6.9336 10.4465 6.67832 9.87775 6.63677V6.63093H8.63817C8.93685 6.5289 9.21131 6.36643 9.44445 6.15367C9.67758 5.9409 9.8644 5.6824 9.99325 5.39427L11.4778 2.07568Z" fill="#1D1916"/>
</svg>
