<svg width="16" height="16" viewBox="0 0 16 16" fill="none" xmlns="http://www.w3.org/2000/svg">
<path d="M5.06257 2.66669H2.9126V4.79972H5.06257V2.66669Z" fill="black"/>
<path d="M13.665 2.66669H11.515V4.79972H13.665V2.66669Z" fill="black"/>
<path d="M7.21253 4.79956H2.9126V6.93259H7.21253V4.79956Z" fill="black"/>
<path d="M13.6658 4.79956H9.36584V6.93259H13.6658V4.79956Z" fill="black"/>
<path d="M13.6638 6.93243H2.9126V9.06544H13.6638V6.93243Z" fill="black"/>
<path d="M5.06257 9.06598H2.9126V11.199H5.06257V9.06598Z" fill="black"/>
<path d="M9.36383 9.06598H7.21387V11.199H9.36383V9.06598Z" fill="black"/>
<path d="M13.665 9.06598H11.515V11.199H13.665V9.06598Z" fill="black"/>
<path d="M7.21466 11.2003H0.763428V13.3334H7.21466V11.2003Z" fill="black"/>
<path d="M15.8171 11.2003H9.36584V13.3334H15.8171V11.2003Z" fill="black"/>
<path d="M5.06328 2.66669H2.91333V4.79972H5.06328V2.66669Z" fill="#FFD800"/>
<path d="M13.6642 2.66669H11.5143V4.79972H13.6642V2.66669Z" fill="#FFD800"/>
<path d="M7.21328 4.79956H2.91333V6.93259H7.21328V4.79956Z" fill="#FFAF00"/>
<path d="M13.6644 4.79956H9.3645V6.93259H13.6644V4.79956Z" fill="#FFAF00"/>
<path d="M13.6645 6.93243H2.91333V9.06544H13.6645V6.93243Z" fill="#FF8205"/>
<path d="M5.06328 9.06598H2.91333V11.199H5.06328V9.06598Z" fill="#FA500F"/>
<path d="M9.36383 9.06598H7.21387V11.199H9.36383V9.06598Z" fill="#FA500F"/>
<path d="M13.6642 9.06598H11.5143V11.199H13.6642V9.06598Z" fill="#FA500F"/>
<path d="M7.21466 11.2003H0.763428V13.3334H7.21466V11.2003Z" fill="#E10500"/>
<path d="M15.8157 11.2003H9.3645V13.3334H15.8157V11.2003Z" fill="#E10500"/>
</svg>
