<svg width="16" height="16" viewBox="0 0 16 16" fill="none" xmlns="http://www.w3.org/2000/svg">
<g clip-path="url(#clip0_1128_3655)">
<path d="M13.689 6.78469C13.8396 6.33289 13.8898 5.85598 13.8438 5.38326C13.7977 4.91053 13.6429 4.45455 13.4045 4.04457C13.0489 3.42543 12.5051 2.93597 11.8525 2.64314C11.1999 2.3503 10.4719 2.275 9.77335 2.4256C9.45957 2.07001 9.07049 1.78554 8.63545 1.5931C8.20036 1.40067 7.73184 1.30026 7.25492 1.30445C6.53956 1.30445 5.84511 1.52617 5.26362 1.94869C4.68631 2.36703 4.25542 2.96107 4.0337 3.63878C3.56935 3.735 3.13009 3.92743 2.74522 4.20773C2.36034 4.48801 2.03822 4.8436 1.80395 5.25776C1.44418 5.8769 1.29358 6.59226 1.36888 7.30344C1.44418 8.01464 1.7412 8.68397 2.22229 9.21523C2.07169 9.66707 2.02149 10.144 2.06751 10.6167C2.11771 11.0894 2.26831 11.5454 2.50677 11.9554C2.86235 12.5745 3.40619 13.064 4.0588 13.3568C4.71141 13.6496 5.43932 13.7249 6.13795 13.5743C6.4517 13.9299 6.84076 14.2144 7.27583 14.4069C7.71091 14.5993 8.17942 14.6997 8.65633 14.6955C9.37173 14.6955 10.0703 14.4738 10.6477 14.0513C11.225 13.6329 11.6559 13.0389 11.8775 12.357C12.3419 12.2608 12.7812 12.0683 13.166 11.788C13.5509 11.5078 13.8689 11.1522 14.1073 10.738C14.4671 10.1188 14.6177 9.4035 14.5424 8.6923C14.4671 7.98116 14.1701 7.31178 13.689 6.78469ZM8.68567 13.817C8.02049 13.817 7.50176 13.612 7.05412 13.2355C7.07503 13.2229 7.1085 13.2062 7.1336 13.1895L9.79843 11.65C9.86538 11.6123 9.91974 11.558 9.95742 11.491C9.99504 11.4241 10.016 11.3488 10.016 11.2735V7.51679L11.1413 8.16937C11.1413 8.16937 11.1539 8.17777 11.158 8.18197C11.158 8.18611 11.1622 8.19451 11.1664 8.19871V11.3112C11.1664 12.721 9.99084 13.8212 8.68567 13.8212V13.817ZM3.26814 11.5161C2.9753 11.0099 2.86653 10.4117 2.97112 9.8344C2.99204 9.84694 3.02551 9.86788 3.0506 9.88042L5.71543 11.4199C5.78236 11.4575 5.85767 11.4785 5.93297 11.4785C6.00827 11.4785 6.08356 11.4575 6.1505 11.4199L9.40521 9.54156V10.8426C9.40521 10.8426 9.40521 10.8551 9.40521 10.8635C9.40521 10.8677 9.39681 10.8761 9.39261 10.8803L6.69853 12.4365C6.12122 12.767 5.43933 12.859 4.79508 12.6875C4.15084 12.5159 3.60281 12.0935 3.27233 11.5203L3.26814 11.5161ZM2.56533 5.69702C2.85817 5.18664 3.32253 4.79758 3.87055 4.59678V7.76782C3.87055 7.84311 3.89147 7.91841 3.92912 7.9853C3.96676 8.05226 4.02115 8.10668 4.08809 8.1443L7.34277 10.0227L6.21743 10.6753C6.21743 10.6753 6.20489 10.6795 6.2007 10.6837C6.19234 10.6837 6.18815 10.6837 6.17979 10.6837L3.48568 9.1274C2.90837 8.79274 2.49003 8.24473 2.31851 7.60463C2.147 6.9604 2.23484 6.2785 2.56533 5.7012V5.69702ZM11.8232 7.85145L8.5685 5.97312L9.69385 5.32469C9.69385 5.32469 9.70639 5.32051 9.71059 5.31633H9.73147L12.4256 6.87255C12.8398 7.11097 13.1744 7.46243 13.3961 7.88493C13.6179 8.30743 13.7099 8.78434 13.6722 9.25711C13.6304 9.73397 13.4547 10.1858 13.166 10.5623C12.8774 10.943 12.4884 11.2317 12.0407 11.3948V8.22379C12.0407 8.1485 12.0198 8.0732 11.9822 8.00624C11.9445 7.93929 11.8901 7.88493 11.8232 7.84725V7.85145ZM12.9443 6.16137C12.9443 6.16137 12.8899 6.12791 12.8649 6.11535L10.2 4.57587C10.1331 4.53821 10.0578 4.5173 9.9825 4.5173C9.9072 4.5173 9.82771 4.53821 9.76495 4.57587L6.51027 6.45421V5.15317C6.51027 5.15317 6.51027 5.14062 6.51027 5.13226C6.51027 5.12807 6.51864 5.11971 6.52283 5.11552L9.21694 3.5593C9.6311 3.32084 10.0996 3.20371 10.5765 3.22463C11.0534 3.24554 11.5136 3.40033 11.9027 3.67225C12.2917 3.94417 12.5971 4.32486 12.7812 4.76412C12.9652 5.20337 13.0196 5.68865 12.9401 6.15719L12.9443 6.16137ZM5.89532 8.48316L4.76998 7.83057C4.76998 7.83057 4.75743 7.82217 4.75325 7.81797C4.75325 7.81383 4.74907 7.80543 4.74488 7.80123V4.68882C4.74488 4.21191 4.88293 3.74755 5.13812 3.34176C5.3933 2.94015 5.75726 2.61803 6.19234 2.41723C6.62323 2.21643 7.10432 2.14113 7.57705 2.19969C8.04977 2.26245 8.4974 2.45488 8.86134 2.76027C8.8404 2.77282 8.80698 2.78955 8.78185 2.80628L6.11704 4.34578C6.0501 4.38343 5.99572 4.43781 5.95806 4.50475C5.92042 4.57168 5.8995 4.64698 5.8995 4.72228V8.47896L5.89532 8.48316ZM6.50609 7.16539L7.95353 6.32871L9.40101 7.16539V8.83876L7.95353 9.67541L6.50609 8.83876V7.16539Z" fill="#1D1916"/>
</g>
<defs>
<clipPath id="clip0_1128_3655">
<rect width="14" height="14" fill="white" transform="translate(1 1)"/>
</clipPath>
</defs>
</svg>
