<svg width="16" height="16" viewBox="0 0 16 16" fill="none" xmlns="http://www.w3.org/2000/svg">
<path d="M6.70301 5.41174H3V6.69916H4.0325V10.5888H5.66992V6.69916H6.70243L6.70301 5.41174ZM8.86952 5.41174H7.2321V10.5888H8.86952V5.41174ZM11.5651 5.41174H9.92769V10.5888H11.5651V5.41174Z" fill="#6400FF"/>
<path d="M7.22913 15V14.3846C8.98496 14.3846 10.5034 13.7552 11.7424 12.5132C12.9808 11.2707 13.6143 9.75583 13.6143 8C13.6143 6.24475 12.9843 4.72925 11.7424 3.48733C10.5011 2.24483 8.98205 1.61483 7.22971 1.61483V1C9.15122 1 10.8161 1.69067 12.1776 3.05217C13.5391 4.41367 14.2291 6.0785 14.2291 8C14.2291 9.92208 13.5391 11.5904 12.177 12.9484C10.8149 14.3064 9.15413 15 7.22971 15H7.22913Z" fill="#6400FF"/>
</svg>
